
<svg version="1.1" xmlns="http://www.w3.org/2000/svg" width="1024" height="1024" viewBox="0 0 1024 1024" preserveAspectRatio="xMidYMid meet">
<path d="M0 0 C337.92 0 675.84 0 1024 0 C1024 337.92 1024 675.84 1024 1024 C686.08 1024 348.16 1024 0 1024 C0 686.08 0 348.16 0 0 Z " fill="#A70021" transform="translate(0,0)" />
<path d="M0 0 C4.9186086 3.44762285 8.08093932 7.75779123 11.5625 12.5625 C12.1723877 13.39950439 12.78227539 14.23650879 13.41064453 15.09887695 C29.269298 37.10558687 42.50622929 60.47655429 49 87 C49.45052734 88.73056641 49.45052734 88.73056641 49.91015625 90.49609375 C54.23628895 110.15484562 54.33719464 134.56455536 49 154 C48.70198486 155.09755615 48.70198486 155.09755615 48.39794922 156.21728516 C44.12853637 171.50082374 37.31255375 183.66794185 26 195 C25.31421875 195.69738281 24.6284375 196.39476562 23.921875 197.11328125 C17.70593049 203.04145055 10.55130466 207.04943044 3 211 C1.67548828 211.69416016 1.67548828 211.69416016 0.32421875 212.40234375 C-20.69064044 222.63197194 -43.93512232 225.45651106 -67 227 C-66.505 228.03125 -66.01 229.0625 -65.5 230.125 C-62.82298898 237.38751315 -63.13131801 245.18677155 -64.83203125 252.65234375 C-66.24040858 257.34166003 -67.80777235 261.6155447 -70 266 C-30.4 266 9.2 266 50 266 C50 288.77 50 311.54 50 335 C36.8 335.33 23.6 335.66 10 336 C13.96 339.96 17.92 343.92 22 348 C25.03515625 351.98828125 25.03515625 351.98828125 27.0625 355.3125 C27.75472656 356.42238281 28.44695312 357.53226563 29.16015625 358.67578125 C36.92102445 372.69807177 39.33436842 388.17200392 38 404 C35.88679733 421.62166527 28.83935418 438.11061875 17.05859375 451.4140625 C-0.82035408 470.60932032 -26.07913887 481.59960325 -51.359375 487.25390625 C-55.35930249 488.0905599 -59.36751972 488.86403524 -63.39562988 489.55253601 C-65.14494454 489.85309057 -66.89282061 490.16213064 -68.63920593 490.47926331 C-76.06370016 491.78986076 -83.43394063 492.58644373 -90.953125 493.1015625 C-92.1612384 493.18524078 -93.36935181 493.26891907 -94.61407471 493.35513306 C-107.98985748 494.2171145 -121.3499007 494.39702537 -134.75 494.375 C-136.00971619 494.37445618 -137.26943237 494.37391235 -138.56732178 494.37335205 C-181.10071027 494.28923945 -225.28457336 489.13358394 -261.12890625 464.18359375 C-276.02498733 452.85446542 -286.87255388 439.12323176 -293.3203125 421.36328125 C-298.01548823 405.38983375 -297.82739179 386.9303929 -293 371 C-291.59407009 367.16609894 -289.93462171 363.59365629 -288 360 C-287.55785156 359.15953125 -287.11570312 358.3190625 -286.66015625 357.453125 C-282.26191394 349.60695312 -276.32799173 343.32799173 -270 337 C-283.2 336.67 -296.4 336.34 -310 336 C-310 312.9 -310 289.8 -310 266 C-300.45449219 266.00902344 -290.90898437 266.01804687 -281.07421875 266.02734375 C-275.01753652 266.01750293 -268.96094258 266.00589447 -262.90429688 265.98632812 C-253.2963592 265.95561657 -243.68878937 265.93200617 -234.08081055 265.95532227 C-227.08213813 265.97227296 -220.08399278 265.96450542 -213.08538944 265.92765242 C-209.38305596 265.90900421 -205.68161284 265.90232916 -201.97928429 265.92530632 C-197.8353252 265.95055938 -193.69345659 265.9205982 -189.54956055 265.88647461 C-188.33610962 265.9022908 -187.12265869 265.91810699 -185.87243652 265.93440247 C-178.26753681 265.81435526 -173.51996233 264.21908386 -167.27779865 259.84798527 C-163.09246201 256.45240838 -160.03630925 253.07261849 -157.625 248.25 C-156.29309229 241.32407993 -156.37261443 235.56846392 -159 229 C-234.24 228.505 -234.24 228.505 -311 228 C-311 199.62 -311 171.24 -311 142 C-301.32816406 141.97812622 -301.32816406 141.97812622 -291.4609375 141.95581055 C-270.09512146 141.9053474 -248.72937697 141.83887913 -227.3636322 141.76428509 C-214.4167462 141.71947056 -201.46988682 141.68002345 -188.52294922 141.65356445 C-177.22800683 141.63046755 -165.93314973 141.59694087 -154.63827515 141.55129844 C-148.66718313 141.52752273 -142.69617476 141.50869207 -136.72503662 141.50238609 C-131.08449252 141.49626355 -125.44416201 141.47601104 -119.80369759 141.44572449 C-117.75294552 141.43705749 -115.7021654 141.43319755 -113.6513958 141.43499184 C-102.69217852 141.44154253 -91.94657489 140.95484588 -81.0612793 139.62141418 C-79.57105491 139.43949619 -79.57105491 139.43949619 -78.05072498 139.25390309 C-69.20972663 138.07315753 -60.83629247 135.99608757 -53.4375 130.75 C-49.15386214 125.9171778 -47.00531941 120.34489323 -46 114 C-44.72741424 98.04052281 -48.75997134 84.67695381 -56.56640625 70.984375 C-59.94685299 65.31464696 -63.85965453 60.1397392 -68 55 C-69.35624871 53.25161308 -70.71060296 51.50175391 -72.0625 49.75 C-73.04056672 48.49913916 -74.01927066 47.24877433 -75 46 C-72.07000238 42.82930541 -69.12564713 40.7096043 -65.390625 38.55859375 C-64.25858643 37.90157471 -63.12654785 37.24455566 -61.96020508 36.56762695 C-61.35657135 36.22108063 -60.75293762 35.8745343 -60.13101196 35.51748657 C-57.55640853 34.03927315 -54.9897915 32.54744022 -52.42268372 31.05625916 C-51.06336088 30.26674211 -49.70364284 29.47790516 -48.34355164 28.68971252 C-40.4659759 24.12111081 -32.6389978 19.46786934 -24.8125 14.8125 C-23.4710628 14.01548613 -22.12959224 13.21852841 -20.78808594 12.42163086 C-13.84864221 8.29786378 -6.91708462 4.16119328 0 0 Z " fill="#FCBF03" transform="translate(642,265)" />
<path d="M0 0 C6.95228809 4.44474429 12.25137522 10.32369672 15.76171875 17.765625 C18.78943349 25.57801302 18.94301243 33.93149601 16.95703125 42.05859375 C13.78018327 50.52653683 8.56314842 57.11338997 1.37890625 62.578125 C-12.75057196 71.66460616 -29.16230898 73.12443505 -45.54907227 73.02636719 C-47.67037637 73.0156523 -49.79083078 73.02632944 -51.91210938 73.0390625 C-67.91162317 73.0570301 -83.91661351 71.54202224 -97.61328125 62.515625 C-104.04964619 57.60366228 -109.50954015 52.23309113 -112.73828125 44.703125 C-115.18290391 36.94363077 -115.6208986 27.8446275 -113.47265625 19.953125 C-112.53821507 17.75792986 -111.49516068 15.79059741 -110.23828125 13.765625 C-109.66078125 12.734375 -109.08328125 11.703125 -108.48828125 10.640625 C-101.85548536 2.1653858 -93.24268832 -2.62922782 -83.23828125 -6.234375 C-78.60490759 -7.52719005 -73.9877872 -8.48505974 -69.23828125 -9.234375 C-68.18640625 -9.41871094 -67.13453125 -9.60304688 -66.05078125 -9.79296875 C-44.03914674 -12.34144693 -19.8090668 -10.47315147 0 0 Z " fill="#A1001F" transform="translate(561.23828125,600.234375)" />
<path d="M0 0 C2.70681675 2.70681675 2.91674779 5.63096227 3.6875 9.25 C7.25922979 24.51368495 15.44078402 38.43715535 26.890625 49.23046875 C36.75735152 57.507556 47.28531711 63.72532603 59 69 C60.17949219 69.53367187 61.35898437 70.06734375 62.57421875 70.6171875 C79.29697074 77.71837811 97.01860729 81.76212055 115 84 C116.18352051 84.16918945 117.36704102 84.33837891 118.58642578 84.51269531 C131.57214527 86.26303667 144.51403765 86.30483154 157.60009766 86.26074219 C161.33382791 86.25011716 165.06706645 86.26064238 168.80078125 86.2734375 C190.46060707 86.28743355 212.42771011 85.84637259 233.75 81.6875 C235.48878418 81.3615686 235.48878418 81.3615686 237.26269531 81.02905273 C246.11307563 79.30966003 254.52844786 77.08560351 263 74 C264.32906201 73.54320724 265.6585008 73.08750955 266.98828125 72.6328125 C286.4354713 65.83188961 305.77153962 55.17371319 318.25488281 38.30419922 C326.06875808 26.9394142 330.81908133 14.3598584 334 1 C334.33 1 334.66 1 335 1 C336.17077703 18.9519144 332.27669819 35.10470282 323.12890625 50.66796875 C314.31229494 64.46717875 303.09402778 73.91052844 289 82 C288.08605469 82.57363281 287.17210937 83.14726563 286.23046875 83.73828125 C270.48778872 93.10636034 251.08040719 98.60502829 233 101 C231.12629577 101.26558047 229.25259838 101.53120922 227.37890625 101.796875 C212.26923322 103.87937577 197.34948442 105.14817635 182.0859375 105.2734375 C181.3960247 105.2796751 180.70611191 105.2859127 179.99529266 105.29233932 C174.78855705 105.33794843 169.58190974 105.36140019 164.375 105.375 C163.23246891 105.37845177 163.23246891 105.37845177 162.06685638 105.38197327 C133.868835 105.45314402 107.21803363 104.19643368 80 96 C78.83879639 95.66097656 77.67759277 95.32195312 76.48120117 94.97265625 C54.03965644 88.39699966 33.45784407 76.82882166 18 59 C9.6276728 48.31100994 1.84418209 34.01451849 0.79467773 20.32104492 C0.75802002 19.38365479 0.7213623 18.44626465 0.68359375 17.48046875 C0.64169922 16.45888672 0.59980469 15.43730469 0.55664062 14.38476562 C0.51732422 13.32966797 0.47800781 12.27457031 0.4375 11.1875 C0.39431641 10.11306641 0.35113281 9.03863281 0.30664062 7.93164062 C0.20089017 5.28787918 0.09879767 2.6440289 0 0 Z " fill="#6F0113" transform="translate(345,672)" />
<path d="M0 0 C50.16 0 100.32 0 152 0 C155.40107672 6.80215343 155.40107672 6.80215343 155.3125 11.6875 C155.30863281 12.61949219 155.30476562 13.55148437 155.30078125 14.51171875 C155 17 155 17 153 20 C152.67 19.67 152.34 19.34 152 19 C150.03872654 18.89108027 148.07350064 18.85309836 146.10923767 18.84178162 C144.82891159 18.8319928 143.54858551 18.82220398 142.22946167 18.81211853 C140.79742469 18.80621356 139.36538732 18.80040317 137.93334961 18.79467773 C136.43568142 18.78510466 134.93801596 18.77509493 133.44035339 18.76467896 C129.36204771 18.73756188 125.28373038 18.71658928 121.20538402 18.69667697 C116.94790044 18.67485922 112.69045307 18.64745 108.43299866 18.62062073 C100.36529438 18.57063671 92.29757007 18.52571914 84.22982651 18.48259836 C75.04736651 18.43327467 65.86494281 18.37833855 56.68251789 18.32291877 C37.78837873 18.20901112 18.89420484 18.1023904 0 18 C0 12.06 0 6.12 0 0 Z " fill="#6E0014" transform="translate(331,493)" />
<path d="M0 0 C6.95228809 4.44474429 12.25137522 10.32369672 15.76171875 17.765625 C17.6472714 22.46261099 18.012771 26.6373203 17.88671875 31.640625 C17.87769531 32.32898438 17.86867188 33.01734375 17.859375 33.7265625 C17.83604388 35.40640338 17.80018201 37.08606246 17.76171875 38.765625 C17.10171875 38.765625 16.44171875 38.765625 15.76171875 38.765625 C15.48199219 38.12496094 15.20226562 37.48429688 14.9140625 36.82421875 C11.40709092 29.25773023 7.89941608 24.2503491 0.69140625 19.921875 C-11.64224434 13.41014896 -24.52004703 9.66599242 -38.5390625 9.52734375 C-39.73102486 9.51523613 -39.73102486 9.51523613 -40.94706726 9.50288391 C-42.62883362 9.48909852 -44.3106273 9.47835175 -45.99243164 9.47045898 C-47.67839007 9.45903585 -49.36431518 9.43874094 -51.05004883 9.40893555 C-69.64657347 9.08113861 -85.42710999 12.11194678 -101.4140625 22.12890625 C-107.01884465 26.34181346 -110.00233921 32.68716853 -113.23828125 38.765625 C-113.56828125 38.765625 -113.89828125 38.765625 -114.23828125 38.765625 C-115.0034588 21.4428555 -115.0034588 21.4428555 -110.23828125 13.765625 C-109.66078125 12.734375 -109.08328125 11.703125 -108.48828125 10.640625 C-101.85548536 2.1653858 -93.24268832 -2.62922782 -83.23828125 -6.234375 C-78.60490759 -7.52719005 -73.9877872 -8.48505974 -69.23828125 -9.234375 C-68.18640625 -9.41871094 -67.13453125 -9.60304688 -66.05078125 -9.79296875 C-44.03914674 -12.34144693 -19.8090668 -10.47315147 0 0 Z " fill="#700313" transform="translate(561.23828125,600.234375)" />
<path d="M0 0 C0.33 0 0.66 0 1 0 C0.38742185 23.2035126 -2.08820257 47.52918516 -16 67 C-30.2774116 84.97994931 -48.52232962 96.12376688 -70.375 102.6875 C-85.38297516 106.98511587 -100.48169735 108.73925108 -116 110 C-116.13277344 109.11957031 -116.26554688 108.23914063 -116.40234375 107.33203125 C-116.57894531 106.17058594 -116.75554688 105.00914062 -116.9375 103.8125 C-117.11152344 102.66394531 -117.28554688 101.51539063 -117.46484375 100.33203125 C-117.91389525 97.53611205 -118.43527447 94.77398144 -119 92 C-112.50597583 90.97511814 -106.01231295 89.98564278 -99.4921875 89.140625 C-73.28325361 85.67467354 -48.26820736 78.76739555 -28 61 C-27.25621094 60.36707031 -26.51242187 59.73414063 -25.74609375 59.08203125 C-13.43429246 47.78215883 -7.03255095 32.06040029 -3.25 16.125 C-2.81982773 14.08613617 -2.40250378 12.04450595 -2 10 C-1.79503906 9.00097656 -1.59007812 8.00195312 -1.37890625 6.97265625 C-0.90668428 4.65062683 -0.44650609 2.32708469 0 0 Z " fill="#6F0213" transform="translate(694,400)" />
<path d="M0 0 C13.53 0 27.06 0 41 0 C37.20028808 4.43299724 33.39099196 8.83897302 29.515625 13.203125 C27.82987774 15.13335749 27.82987774 15.13335749 26 18 C17.42 18 8.84 18 0 18 C0 12.06 0 6.12 0 0 Z " fill="#6E0114" transform="translate(332,601)" />
<path d="M0 0 C28.26299694 -0.19877676 28.26299694 -0.19877676 41 1 C41 6.94 41 12.88 41 19 C38.44423846 19.03453732 35.88772293 19.05499381 33.33203125 19.015625 C29.98175759 18.95941101 29.98175759 18.95941101 26.57421875 19.234375 C22.69103243 19.32076402 19.72855973 19.13225451 16 18 C11.16632065 14.52395763 7.57638175 9.69843957 4 5 C2.66721033 3.33289854 1.33409702 1.66605543 0 0 Z " fill="#6E0213" transform="translate(651,600)" />
<path d="M0 0 C3.04884677 1.06916572 4.14593602 2.1902475 6.1484375 4.80078125 C6.90332526 5.96320446 7.64487351 7.1343665 8.375 8.3125 C8.7656665 8.93334473 9.15633301 9.55418945 9.55883789 10.19384766 C16.69579525 21.77911218 21.41475531 32.81463379 21.125 46.5 C21.11597656 47.32242188 21.10695313 48.14484375 21.09765625 48.9921875 C21.07436865 50.99492083 21.03850959 52.99750154 21 55 C20.67 55 20.34 55 20 55 C19.79246094 54.21238281 19.58492187 53.42476563 19.37109375 52.61328125 C14.29188921 34.65542418 3.48345813 20.37333501 -8 6 C-5.38485683 3.87961365 -2.80362384 1.86908256 0 0 Z " fill="#6F0313" transform="translate(575,323)" />
<path d="M0 0 C0.33 0 0.66 0 1 0 C0.97711496 3.39730695 0.89969714 6.79128305 0.8125 10.1875 C0.80669922 11.14720703 0.80089844 12.10691406 0.79492188 13.09570312 C0.57633171 20.11487607 0.57633171 20.11487607 -1.16650391 22.79150391 C-2.55078125 24.17578125 -2.55078125 24.17578125 -5 26 C-4.87882813 25.44054687 -4.75765625 24.88109375 -4.6328125 24.3046875 C-3.28789509 17.86977496 -2.32200989 11.42354628 -1.46484375 4.90625 C-1 2 -1 2 0 0 Z " fill="#7D1313" transform="translate(694,400)" />
<path d="M0 0 C0.33 0 0.66 0 1 0 C1 4.29 1 8.58 1 13 C-0.98 13 -2.96 13 -5 13 C-4.54554036 11.58208592 -4.08625056 10.16571954 -3.625 8.75 C-3.24214844 7.56664062 -3.24214844 7.56664062 -2.8515625 6.359375 C-2.04826333 4.13372042 -1.10288338 2.09068328 0 0 Z " fill="#780914" transform="translate(577,518)" />
<path d="M0 0 C0.33 0 0.66 0 1 0 C1 5.94 1 11.88 1 18 C0.67 18 0.34 18 0 18 C-0.33 16.02 -0.66 14.04 -1 12 C-1.99 12.495 -1.99 12.495 -3 13 C-2.01 8.71 -1.02 4.42 0 0 Z " fill="#810E15" transform="translate(679,673)" />
<path d="M0 0 C2 2 2 2 2.6328125 4.8203125 C2.79523438 5.91085937 2.95765625 7.00140625 3.125 8.125 C3.29257812 9.22070312 3.46015625 10.31640625 3.6328125 11.4453125 C3.75398438 12.28835938 3.87515625 13.13140625 4 14 C2.515 14.99 2.515 14.99 1 16 C0.67 10.72 0.34 5.44 0 0 Z " fill="#811613" transform="translate(345,672)" />
</svg>
